<?xml version="1.0" encoding="UTF-8"?>
<svg version="1.1" xmlns="http://www.w3.org/2000/svg" width="708" height="378">
<path d="M0 0 C1.00498535 0.00161133 2.0099707 0.00322266 3.04541016 0.00488281 C15.07751701 0.20071414 26.20619741 2.80183733 36.9375 8.375 C37.77152344 8.75914063 38.60554688 9.14328125 39.46484375 9.5390625 C54.06979492 16.70533696 65.72678774 29.74121024 73.1875 44 C73.66376831 44.88510254 73.66376831 44.88510254 74.1496582 45.78808594 C80.9406259 59.50930492 81.52427664 73.79649511 81.45507812 88.75585938 C81.46051174 90.75194303 81.46764128 92.74802266 81.47631836 94.74409485 C81.49440734 100.11811908 81.48754429 105.4918329 81.47480202 110.86586189 C81.464599 116.5184519 81.47408781 122.17101723 81.48034668 127.8236084 C81.48760197 137.31197834 81.47809119 146.8002233 81.45898438 156.28857422 C81.43721982 167.22227225 81.44427269 178.15567181 81.46629 189.08936262 C81.48450457 198.51578541 81.48697281 207.94211891 81.47653532 217.36855364 C81.47033359 222.98148514 81.46937256 228.59427685 81.48268127 234.2071991 C81.49432773 239.48683165 81.48605503 244.7660834 81.46310425 250.04567528 C81.45786378 251.97080545 81.45924977 253.89596827 81.46815491 255.82108498 C81.57411639 281.07721917 74.65570263 302.71002319 56.9375 321.375 C37.5111732 338.99726685 15.6900123 344.58063331 -10.0625 343.375 C-26.0673527 341.60030118 -40.09457464 333.75171605 -52.0625 323.375 C-52.73667969 322.80136719 -53.41085938 322.22773438 -54.10546875 321.63671875 C-68.59806172 308.27169594 -76.67740072 288.56237872 -79.0625 269.375 C-79.15721686 266.62053102 -79.21035921 263.89135502 -79.20967102 261.13749695 C-79.21334771 260.33567279 -79.2170244 259.53384863 -79.2208125 258.70772678 C-79.2317783 256.03520639 -79.2356811 253.36272499 -79.23950195 250.69018555 C-79.2457722 248.76764301 -79.25241949 246.84510168 -79.25941467 244.92256165 C-79.28039877 238.61895583 -79.29081494 232.31534995 -79.30078125 226.01171875 C-79.30483156 223.83438416 -79.30894856 221.65704969 -79.31313133 219.47971535 C-79.33217422 209.24308401 -79.34640456 199.00645982 -79.3547433 188.76981419 C-79.36449872 176.99124382 -79.39077778 165.21286223 -79.43124419 153.4343583 C-79.46151505 144.3070459 -79.47622272 135.17978726 -79.47952431 126.05242568 C-79.48186316 120.61252404 -79.49067009 115.17282426 -79.51598549 109.73297691 C-79.53946255 104.60534412 -79.54342145 99.47804326 -79.53322411 94.35037041 C-79.5327333 92.48250975 -79.538917 90.61463164 -79.55278015 88.74682236 C-79.65705848 73.84682032 -78.65906947 58.12985605 -71.25 44.8125 C-70.90453125 44.15886475 -70.5590625 43.50522949 -70.203125 42.83178711 C-67.34267208 37.56208367 -64.02357067 32.87940337 -60.0625 28.375 C-59.45921875 27.62992188 -58.8559375 26.88484375 -58.234375 26.1171875 C-43.93467413 8.96917222 -22.04555227 -0.03705758 0 0 Z M-9.0625 73.375 C-10.49554064 76.24108129 -10.36894155 78.18800783 -10.0625 81.375 C-8.56237532 83.9397293 -7.17066535 86.26683465 -5.0625 88.375 C-4.93880675 90.3685143 -4.8845361 92.3663647 -4.85717773 94.36352539 C-4.83723251 95.64477798 -4.81728729 96.92603058 -4.79673767 98.24610901 C-4.77975203 99.65495684 -4.76287327 101.06380595 -4.74609375 102.47265625 C-4.72553085 103.90612905 -4.70453456 105.33959569 -4.68312073 106.77305603 C-4.62783141 110.5525312 -4.57845255 114.3320617 -4.53027344 118.1116333 C-4.48010835 121.96574855 -4.42439629 125.81978309 -4.36914062 129.67382812 C-4.26147521 137.24081714 -4.16004903 144.8078731 -4.0625 152.375 C-1.72955225 152.41741723 0.60452567 152.41592937 2.9375 152.375 C4.51739117 150.79510883 4.09368628 149.17902804 4.12695312 146.9855957 C4.14367065 146.04984207 4.16038818 145.11408844 4.1776123 144.14997864 C4.19118774 143.1272435 4.20476318 142.10450836 4.21875 141.05078125 C4.23715942 139.99779343 4.25556885 138.9448056 4.27453613 137.85990906 C4.3334841 134.46916493 4.38609048 131.07836625 4.4375 127.6875 C4.56808406 119.24896265 4.72013904 110.81179052 4.9375 102.375 C4.96481201 101.18484283 4.96481201 101.18484283 4.99267578 99.97064209 C5.04583365 97.99402914 5.13067151 96.01833371 5.21875 94.04296875 C5.26064453 93.01840576 5.30253906 91.99384277 5.34570312 90.93823242 C6.08924433 87.71775425 7.50820402 86.5400422 9.9375 84.375 C11.31120703 80.17881294 11.41498378 76.49708689 9.6875 72.4375 C7.66852355 70.05799204 5.98353137 68.56109172 2.8515625 68.00390625 C-2.89510958 67.83719392 -5.4002278 68.56826774 -9.0625 73.375 Z M21.8125 79.6875 C20.0237862 82.25132311 19.21126373 84.26754779 18.1875 87.1875 C16.68712146 91.37884086 15.30005096 93.09542231 11.625 95.5625 C9.41007212 97.08508437 9.41007212 97.08508437 7.9375 99.375 C7.53709594 104.52152685 8.10101866 109.29729688 8.9375 114.375 C12.59143537 115.64323485 15.42820026 115.13215321 19.1875 114.4375 C20.80398437 114.14552734 20.80398437 114.14552734 22.453125 113.84765625 C23.27296875 113.69167969 24.0928125 113.53570312 24.9375 113.375 C24.9375 112.385 24.9375 111.395 24.9375 110.375 C24.2775 110.045 23.6175 109.715 22.9375 109.375 C23.91360229 109.39071045 23.91360229 109.39071045 24.90942383 109.40673828 C27.8562433 109.44829835 30.80300111 109.47432608 33.75 109.5 C35.28624023 109.52513672 35.28624023 109.52513672 36.85351562 109.55078125 C37.83642578 109.55722656 38.81933594 109.56367187 39.83203125 109.5703125 C40.73800049 109.58078613 41.64396973 109.59125977 42.57739258 109.60205078 C45.20686448 109.53665391 45.20686448 109.53665391 47.9375 107.375 C47.9375 106.385 47.9375 105.395 47.9375 104.375 C43.6475 103.055 39.3575 101.735 34.9375 100.375 C35.93652344 100.53484375 36.93554688 100.6946875 37.96484375 100.859375 C41.81496725 101.40565667 45.60888634 101.57710937 49.5 101.625 C51.38912109 101.66367188 51.38912109 101.66367188 53.31640625 101.703125 C58.11252831 101.26852494 61.46312637 99.84937363 64.875 96.4375 C66.18618935 93.89225008 65.740915 93.0290399 64.9375 90.375 C63.96067261 90.23783569 63.96067261 90.23783569 62.96411133 90.09790039 C55.42529751 88.90095599 48.70059074 86.62761561 41.625 83.8125 C39.54758314 82.99357997 37.46820823 82.17960619 35.38671875 81.37109375 C34.03066528 80.83246704 34.03066528 80.83246704 32.6472168 80.28295898 C27.11316364 78.24632429 27.11316364 78.24632429 21.8125 79.6875 Z M-39 82.6875 C-40.4050895 83.33455724 -41.81133327 83.97911419 -43.21875 84.62109375 C-43.88390625 84.92772949 -44.5490625 85.23436523 -45.234375 85.55029297 C-51.80093829 88.51261278 -57.90064677 89.80659895 -65.0625 90.375 C-64.79462125 94.30388829 -64.53812903 95.92376221 -61.625 98.6875 C-57.28136297 101.5479439 -53.96756779 101.55819521 -48.875 101.5625 C-47.7602832 101.58086914 -47.7602832 101.58086914 -46.62304688 101.59960938 C-41.72256261 101.61249408 -37.71130647 100.93281197 -33.0625 99.375 C-35.06113821 101.37363821 -38.43374204 101.69299755 -41.125 102.4375 C-41.78822266 102.62376953 -42.45144531 102.81003906 -43.13476562 103.00195312 C-44.776518 103.46258868 -46.41940581 103.91917387 -48.0625 104.375 C-47.7325 105.695 -47.4025 107.015 -47.0625 108.375 C-38.81013174 110.37607527 -31.47498481 110.36470409 -23.0625 109.375 C-23.3925 110.695 -23.7225 112.015 -24.0625 113.375 C-20.74705701 114.48014766 -17.85839889 114.69607631 -14.375 114.9375 C-13.19550781 115.02128906 -12.01601562 115.10507813 -10.80078125 115.19140625 C-9.44533203 115.28228516 -9.44533203 115.28228516 -8.0625 115.375 C-7.76283942 111.06083894 -7.55145368 106.77068438 -7.62109375 102.4453125 C-7.62939209 101.73391113 -7.63769043 101.02250977 -7.64624023 100.28955078 C-8.18629954 97.80559472 -9.16372344 97.03824503 -11.1875 95.5625 C-11.82300781 95.27117187 -12.45851562 94.97984375 -13.11328125 94.6796875 C-16.77095483 92.2314651 -18.04304099 87.92508564 -19.80078125 84.01953125 C-20.92017424 81.29485407 -20.92017424 81.29485407 -23.0625 79.375 C-29.319369 78.80252006 -33.42394627 79.971885 -39 82.6875 Z M-34 129.5 C-35.84569499 134.4942335 -36.16527278 139.52617033 -34.21875 144.5546875 C-30.84939012 150.40553539 -25.55310382 156.21146539 -19.0625 158.375 C-17.56573294 158.49159598 -16.06374939 158.54998959 -14.5625 158.5625 C-13.40234375 158.58376953 -13.40234375 158.58376953 -12.21875 158.60546875 C-9.76569944 158.51161528 -9.76569944 158.51161528 -7.0625 156.375 C-7.0625 155.715 -7.0625 155.055 -7.0625 154.375 C-7.87074219 153.99988281 -8.67898437 153.62476563 -9.51171875 153.23828125 C-21.17860177 147.65112497 -21.17860177 147.65112497 -24.0625 143.375 C-24.72218644 140.37088942 -24.98889632 137.44628091 -25.0625 134.375 C-24.08667969 134.47039062 -23.11085938 134.56578125 -22.10546875 134.6640625 C-20.19701172 134.83035156 -20.19701172 134.83035156 -18.25 135 C-16.98542969 135.11601562 -15.72085938 135.23203125 -14.41796875 135.3515625 C-10.92692059 135.68941804 -10.92692059 135.68941804 -8.0625 133.375 C-7.69952064 131.39752878 -7.69952064 131.39752878 -7.875 129.25 C-7.936875 127.97125 -7.99875 126.6925 -8.0625 125.375 C-17.63999151 122.0436986 -26.71137245 121.50602139 -34 129.5 Z M8.9375 126.375 C8.9375 128.685 8.9375 130.995 8.9375 133.375 C12.48144099 135.62634416 14.96095193 135.42625941 19.0625 134.9375 C24.74305556 134.27777778 24.74305556 134.27777778 26.9375 135.375 C27.3895856 139.17251908 27.13363 141.03877714 25.1875 144.375 C19.03822345 150.93422832 9.60646422 153.56833201 1.3125 156.375 C-8.18916419 159.60726536 -17.62042801 163.41825651 -23.0625 172.375 C-24.85456705 176.42315146 -25.16467085 179.54303736 -24.625 183.9375 C-22.10217115 189.48772347 -18.47793037 193.19193206 -13 195.875 C-9.73097717 196.43142942 -7.27381719 196.13959933 -4.0625 195.375 C-5.32347354 191.59207938 -6.9798636 191.29180249 -10.3359375 189.46875 C-12.92923575 187.82593663 -13.97708657 186.22421027 -15.0625 183.375 C-14.830844 179.59128535 -14.04750042 176.59582326 -12.0625 173.375 C-6.8479751 169.79618922 -0.54647856 167.73814994 5.3125 165.4375 C23.70242599 158.33235415 23.70242599 158.33235415 36.0546875 143.67578125 C37.51615111 139.86692254 37.53793274 137.4445997 36.9375 133.375 C34.53633576 128.57267151 31.79728996 125.67235525 26.9375 123.375 C20.23006937 122.47324573 14.885104 123.20294453 8.9375 126.375 Z M11.3125 166.875 C10.52875 167.7 9.745 168.525 8.9375 169.375 C9.700625 170.138125 10.46375 170.90125 11.25 171.6875 C12.136875 172.574375 13.02375 173.46125 13.9375 174.375 C14.865625 175.1175 14.865625 175.1175 15.8125 175.875 C16.9375 177.375 16.9375 177.375 16.875 179.75 C14.58010844 186.17569636 9.7809385 188.98177843 4.1875 192.25 C-4.68037991 197.62023795 -13.62118904 203.05106711 -17.0625 213.375 C-17.61135106 218.0987181 -17.52846728 221.47634882 -15.3125 225.75 C-12.53558623 229.00066754 -12.53558623 229.00066754 -9.0625 231.375 C-6.39488236 231.62624826 -6.39488236 231.62624826 -4.0625 231.375 C-4.0625 227.91949843 -4.81119276 226.9240651 -6.625 224.0625 C-8.41695102 220.94430274 -9.06930012 219.7354063 -9 216.0625 C-8.690625 215.175625 -8.38125 214.28875 -8.0625 213.375 C-7.73958984 212.41787109 -7.73958984 212.41787109 -7.41015625 211.44140625 C-5.45599242 208.44502171 -2.65409412 207.22800356 0.4375 205.625 C10.17092188 200.29803422 22.16045565 193.1953533 25.69140625 181.98046875 C26.24713761 178.45303705 26.18797967 176.04816412 24.9375 172.6875 C22.24086188 169.56951217 19.31975945 166.74665662 15.9375 164.375 C13.57471264 164.14511494 13.57471264 164.14511494 11.3125 166.875 Z M1.9375 169.375 C0.2875 170.035 -1.3625 170.695 -3.0625 171.375 C-3.0625 177.975 -3.0625 184.575 -3.0625 191.375 C0.98372502 191.74480013 0.98372502 191.74480013 3.9375 189.375 C4.35230107 187.34612689 4.35230107 187.34612689 4.23046875 185.0234375 C4.2159668 183.74726563 4.2159668 183.74726563 4.20117188 182.4453125 C4.17603516 181.55585938 4.15089844 180.66640625 4.125 179.75 C4.11146484 178.8528125 4.09792969 177.955625 4.08398438 177.03125 C4.04856925 174.81190211 3.99918461 172.59374812 3.9375 170.375 C3.2775 170.045 2.6175 169.715 1.9375 169.375 Z M8.25 205.875 C7.6003125 206.6175 7.6003125 206.6175 6.9375 207.375 C7.22625 207.9525 7.515 208.53 7.8125 209.125 C8.18375 209.8675 8.555 210.61 8.9375 211.375 C9.494375 212.303125 9.494375 212.303125 10.0625 213.25 C11.36160128 216.40496025 11.59306395 217.96606746 10.9375 221.375 C6.99809729 226.47785326 1.88809145 230.2548044 -3.30078125 233.99609375 C-6.26397796 236.31540293 -8.3879188 239.0258376 -10.0625 242.375 C-10.1314472 243.74842831 -10.14717708 245.12502102 -10.125 246.5 C-10.104375 247.77875 -10.08375 249.0575 -10.0625 250.375 C-9.0725 250.375 -8.0825 250.375 -7.0625 250.375 C-6.629375 249.22 -6.19625 248.065 -5.75 246.875 C-3.25741254 241.845473 0.56125826 239.4234753 5.109375 236.31640625 C10.91732472 232.32945734 16.67748394 228.29629918 18.9375 221.375 C19.70335664 215.93741787 18.90158648 212.09558217 15.9375 207.375 C14.56243901 205.49609566 14.56243901 205.49609566 12.9375 204.375 C9.93490483 204.04281808 9.93490483 204.04281808 8.25 205.875 Z M-1.671875 209.43359375 C-3.77737698 212.37301646 -3.38616223 214.87593116 -3.3125 218.4375 C-3.29703125 219.68660156 -3.2815625 220.93570313 -3.265625 222.22265625 C-3.27398486 225.2760085 -3.27398486 225.2760085 -2.0625 227.375 C0.80474686 226.80155063 1.7989515 226.5135485 3.9375 224.375 C4.08257695 221.63014407 4.12402423 218.99019457 4.0625 216.25 C4.04896484 215.11884766 4.04896484 215.11884766 4.03515625 213.96484375 C4.0115687 212.10142746 3.97569719 210.23817407 3.9375 208.375 C3.6075 209.035 3.2775 209.695 2.9375 210.375 C2.6075 209.715 2.2775 209.055 1.9375 208.375 C-0.10506463 208.19181933 -0.10506463 208.19181933 -1.671875 209.43359375 Z M5.9375 238.375 C4.9475 239.86 4.9475 239.86 3.9375 241.375 C6.2475 244.675 8.5575 247.975 10.9375 251.375 C11.5975 251.045 12.2575 250.715 12.9375 250.375 C12.68087755 248.93489519 12.40659179 247.4979313 12.125 246.0625 C11.97417969 245.26199219 11.82335937 244.46148437 11.66796875 243.63671875 C10.85249244 241.11179476 10.01796329 239.99430266 7.9375 238.375 C7.2775 238.375 6.6175 238.375 5.9375 238.375 Z M-2.0625 244.375 C-5.36640011 253.76503188 -5.23200162 263.34107982 -1.0625 272.375 C1.41016765 272.03055119 1.41016765 272.03055119 3.9375 271.375 C7.30817681 264.63364637 5.18160328 251.67066737 3.9375 244.375 C3.6075 243.715 3.2775 243.055 2.9375 242.375 C0.61392489 242.19009993 0.61392489 242.19009993 -2.0625 244.375 Z " fill="#025789" transform="translate(123.0625,10.625)"/>
<path d="M0 0 C0.89878876 -0.00945648 1.79757751 -0.01891296 2.72360229 -0.02865601 C3.69540436 -0.02258331 4.66720642 -0.01651062 5.66845703 -0.01025391 C6.67659454 -0.01312408 7.68473206 -0.01599426 8.72341919 -0.01895142 C10.8636328 -0.0209952 13.00386496 -0.01544347 15.14404297 -0.00292969 C18.37918461 0.01295244 21.61304477 -0.00268078 24.84814453 -0.02197266 C40.33128429 -0.03830666 55.07235944 0.17312818 67.36376953 10.82568359 C74.48142832 19.16351246 77.1354552 27.34388952 77.05126953 38.20068359 C77.04482422 39.0750708 77.03837891 39.94945801 77.03173828 40.8503418 C76.72609454 51.71979731 73.13421446 59.67083064 65.62158203 67.54052734 C62.7808974 70.07570439 59.97943106 71.74552286 56.55126953 73.38818359 C57.93125472 77.07577369 59.60491366 80.38169251 61.59814453 83.77490234 C62.19626953 84.79648437 62.79439453 85.81806641 63.41064453 86.87060547 C64.03455078 87.92828125 64.65845703 88.98595703 65.30126953 90.07568359 C65.90970703 91.11402344 66.51814453 92.15236328 67.14501953 93.22216797 C67.74830078 94.25019531 68.35158203 95.27822266 68.97314453 96.33740234 C69.56675781 97.35108887 70.16037109 98.36477539 70.77197266 99.40917969 C71.94463977 101.37252822 73.14606564 103.3190236 74.37744141 105.24609375 C74.93496094 106.12442871 75.49248047 107.00276367 76.06689453 107.90771484 C76.56995117 108.67833252 77.07300781 109.4489502 77.59130859 110.24291992 C78.72576165 112.77812822 78.52288214 113.8378815 77.55126953 116.38818359 C73.5108428 116.65051985 69.47260472 116.80968851 65.42626953 116.95068359 C63.71310547 117.06379883 63.71310547 117.06379883 61.96533203 117.17919922 C53.747484 117.39420106 53.747484 117.39420106 50.67797852 114.81274414 C49.04840875 112.42309237 47.81224038 109.99152917 46.55126953 107.38818359 C45.30763053 105.24027891 44.0530301 103.09869645 42.78955078 100.96240234 C41.47786557 98.66859448 40.16932049 96.37298839 38.86376953 94.07568359 C37.55049103 91.76526854 36.23351352 89.45709094 34.91455078 87.14990234 C34.34003174 86.13887451 33.7655127 85.12784668 33.17358398 84.08618164 C32.63822021 83.19584229 32.10285645 82.30550293 31.55126953 81.38818359 C31.09389404 80.62481689 30.63651855 79.8614502 30.1652832 79.07495117 C27.97724517 76.78828428 26.47835869 76.79998043 23.36376953 76.63818359 C22.0121875 76.55310547 22.0121875 76.55310547 20.63330078 76.46630859 C19.94623047 76.44052734 19.25916016 76.41474609 18.55126953 76.38818359 C18.55912476 78.15246704 18.55912476 78.15246704 18.56713867 79.95239258 C18.58518616 84.3002039 18.59670061 88.64801189 18.60620117 92.99584961 C18.61124197 94.88062089 18.61807451 96.76538824 18.62670898 98.65014648 C18.6387857 101.35319995 18.64450022 104.0562019 18.64892578 106.75927734 C18.65408707 107.60719345 18.65924835 108.45510956 18.66456604 109.32872009 C18.66476148 111.34889428 18.61333164 113.36896293 18.55126953 115.38818359 C17.55126953 116.38818359 17.55126953 116.38818359 15.23461914 116.50170898 C14.23438721 116.49647217 13.23415527 116.49123535 12.20361328 116.48583984 C11.12402344 116.48261719 10.04443359 116.47939453 8.93212891 116.47607422 C7.79582031 116.46769531 6.65951172 116.45931641 5.48876953 116.45068359 C4.34859375 116.44617188 3.20841797 116.44166016 2.03369141 116.43701172 C-0.79383398 116.42518107 -3.62125687 116.40869769 -6.44873047 116.38818359 C-7.63159713 114.02245027 -7.57951421 112.59291564 -7.58917236 109.95387268 C-7.59488251 109.02148773 -7.60059265 108.08910278 -7.60647583 107.12846375 C-7.60759369 106.10243546 -7.60871155 105.07640717 -7.60986328 104.01928711 C-7.61482819 102.9411676 -7.61979309 101.8630481 -7.62490845 100.7522583 C-7.63955402 97.17386241 -7.6463355 93.59551082 -7.65185547 90.01708984 C-7.65760423 87.53848773 -7.66336199 85.05988564 -7.66912842 82.58128357 C-7.67964474 77.38011466 -7.68548351 72.17896125 -7.68896484 66.9777832 C-7.69273423 61.62811156 -7.70683681 56.27857731 -7.72998047 50.92895508 C-7.7574471 44.48165806 -7.77036923 38.03449497 -7.77230072 31.58714104 C-7.77533561 29.12507959 -7.78339206 26.66301918 -7.7964859 24.20099068 C-7.81346896 20.7626594 -7.81168515 17.32483037 -7.80517578 13.88647461 C-7.81439056 12.86247055 -7.82360535 11.83846649 -7.83309937 10.78343201 C-7.82753021 9.84822723 -7.82196106 8.91302246 -7.81622314 7.94947815 C-7.8176897 7.136289 -7.81915627 6.32309984 -7.82066727 5.48526859 C-7.01938676 0.96742216 -4.20925318 0.01273203 0 0 Z M18.55126953 21.38818359 C18.55126953 32.27818359 18.55126953 43.16818359 18.55126953 54.38818359 C23.08984771 55.29589923 26.93576208 55.41719798 31.48876953 55.13818359 C32.1790625 55.11111328 32.86935547 55.08404297 33.58056641 55.05615234 C39.54879184 54.70541303 43.77578672 53.30762447 47.86376953 48.88818359 C51.33056232 43.75219428 51.03540579 38.38267067 50.55126953 32.38818359 C48.85715574 28.19748107 46.36170126 25.79041229 42.55126953 23.38818359 C34.82150521 20.41390471 26.76122996 21.38818359 18.55126953 21.38818359 Z " fill="#06598A" transform="translate(257.44873046875,199.61181640625)"/>
<path d="M0 0 C1.61358398 -0.01836914 1.61358398 -0.01836914 3.25976562 -0.03710938 C4.28650391 -0.03904297 5.31324219 -0.04097656 6.37109375 -0.04296875 C7.79119751 -0.04913208 7.79119751 -0.04913208 9.23999023 -0.05541992 C11.5625 0.1875 11.5625 0.1875 13.5625 2.1875 C13.80300903 4.17434692 13.80300903 4.17434692 13.78955078 6.63720703 C13.78939972 7.55801056 13.78924866 8.47881409 13.78909302 9.42752075 C13.77877045 10.42339203 13.76844788 11.41926331 13.7578125 12.4453125 C13.7549826 13.46350067 13.75215271 14.48168884 13.74923706 15.5307312 C13.7380177 18.791439 13.71290996 22.05187484 13.6875 25.3125 C13.67747247 27.51952729 13.66834623 29.72655888 13.66015625 31.93359375 C13.63807268 37.35165572 13.60457795 42.76955843 13.5625 48.1875 C16.21929957 45.64096921 18.43840457 43.12153966 20.48046875 40.0625 C21.00809814 39.27939453 21.53572754 38.49628906 22.0793457 37.68945312 C22.90631958 36.45098633 22.90631958 36.45098633 23.75 35.1875 C28.1787711 28.63150435 32.69102794 22.20340436 37.4921875 15.9140625 C40.37640617 12.11560093 43.15361962 8.24230295 45.93359375 4.3671875 C47.5625 2.1875 47.5625 2.1875 49.5625 0.1875 C51.9609375 -0.07128906 51.9609375 -0.07128906 54.9375 -0.078125 C56.00484375 -0.08070312 57.0721875 -0.08328125 58.171875 -0.0859375 C59.29078125 -0.07820313 60.4096875 -0.07046875 61.5625 -0.0625 C62.68140625 -0.07023437 63.8003125 -0.07796875 64.953125 -0.0859375 C66.02046875 -0.08335938 67.0878125 -0.08078125 68.1875 -0.078125 C69.16976562 -0.07586914 70.15203125 -0.07361328 71.1640625 -0.07128906 C73.5625 0.1875 73.5625 0.1875 75.5625 2.1875 C75.30950128 6.21740816 72.63114131 9.1831824 70.3125 12.3125 C69.39843614 13.56770734 68.48437371 14.82291573 67.5703125 16.078125 C66.83796387 17.07682617 66.83796387 17.07682617 66.09082031 18.09570312 C64.52559384 20.23801309 62.97570261 22.39066616 61.4296875 24.546875 C60.89770752 25.28768311 60.36572754 26.02849121 59.81762695 26.79174805 C58.72911183 28.30803967 57.64171251 29.82513291 56.55541992 31.34301758 C53.77942715 35.19991331 50.95214852 38.99369246 47.99609375 42.71484375 C47.43003418 43.43623535 46.86397461 44.15762695 46.28076172 44.90087891 C45.20010879 46.2708957 44.10460373 47.62936349 42.99267578 48.97412109 C41.33420272 51.00316181 41.33420272 51.00316181 39.5625 54.1875 C40.555047 57.60646202 42.19402298 60.37189466 44.1953125 63.29296875 C44.99243652 64.46158447 44.99243652 64.46158447 45.80566406 65.65380859 C46.38541992 66.48992676 46.96517578 67.32604492 47.5625 68.1875 C48.17577148 69.0738916 48.78904297 69.9602832 49.42089844 70.87353516 C51.42080914 73.75298511 53.42847227 76.62690498 55.4375 79.5 C65.25003713 93.56798554 65.25003713 93.56798554 69.94140625 100.74609375 C71.05910631 102.42937698 72.21555136 104.08735209 73.40234375 105.72265625 C73.97082031 106.51542969 74.53929687 107.30820313 75.125 108.125 C75.86943359 109.12853516 75.86943359 109.12853516 76.62890625 110.15234375 C77.85940337 112.83472451 77.22422914 114.37536815 76.5625 117.1875 C72.18819036 117.39138352 67.81510535 117.51533606 63.4375 117.625 C61.58125 117.71297852 61.58125 117.71297852 59.6875 117.80273438 C50.72018215 117.97147423 50.72018215 117.97147423 47.47509766 115.77392578 C45.92303197 113.99192443 44.73184566 112.23724 43.5625 110.1875 C42.68464844 108.95 42.68464844 108.95 41.7890625 107.6875 C41.26054687 106.8625 40.73203125 106.0375 40.1875 105.1875 C35.34358356 97.78026591 30.2657901 90.54025309 25.19775391 83.28515625 C24.52921387 82.32738281 23.86067383 81.36960937 23.171875 80.3828125 C22.53958984 79.47821289 21.90730469 78.57361328 21.25585938 77.64160156 C19.86936712 75.63222726 18.52532136 73.60641364 17.203125 71.5546875 C15.77955675 69.09586951 15.77955675 69.09586951 13.5625 68.1875 C13.56472061 68.78662704 13.56694122 69.38575409 13.56922913 70.0030365 C13.59128165 76.21547858 13.60640646 82.42790962 13.61743164 88.64038086 C13.62247333 90.96167451 13.62930651 93.28296497 13.63793945 95.60424805 C13.65001225 98.93278795 13.65572979 102.26128602 13.66015625 105.58984375 C13.66531754 106.63462387 13.67047882 107.67940399 13.67579651 108.75584412 C13.67590981 110.19722496 13.67590981 110.19722496 13.67602539 111.66772461 C13.678246 112.51821884 13.68046661 113.36871307 13.68275452 114.24497986 C13.5625 116.1875 13.5625 116.1875 12.5625 117.1875 C10.79390807 117.28696453 9.02138549 117.31830217 7.25 117.3203125 C6.17492187 117.32160156 5.09984375 117.32289063 3.9921875 117.32421875 C2.86039062 117.32035156 1.72859375 117.31648438 0.5625 117.3125 C-0.56929688 117.31636719 -1.70109375 117.32023437 -2.8671875 117.32421875 C-3.94226563 117.32292969 -5.01734375 117.32164062 -6.125 117.3203125 C-7.11886719 117.31918457 -8.11273438 117.31805664 -9.13671875 117.31689453 C-11.4375 117.1875 -11.4375 117.1875 -12.4375 116.1875 C-12.53538264 114.69698732 -12.56381782 113.20185295 -12.56448364 111.70812988 C-12.56730347 110.74057266 -12.57012329 109.77301544 -12.57302856 108.77613831 C-12.57100433 107.7059697 -12.5689801 106.63580109 -12.56689453 105.53320312 C-12.56864685 104.41300278 -12.57039917 103.29280243 -12.57220459 102.13865662 C-12.57662577 98.41533891 -12.57368417 94.69206824 -12.5703125 90.96875 C-12.57098546 88.39424633 -12.57195542 85.81974271 -12.57321167 83.24523926 C-12.574689 77.84138325 -12.57262754 72.4375451 -12.56787109 67.03369141 C-12.5624285 60.77788528 -12.56419117 54.52211174 -12.5696975 48.2663064 C-12.57477434 42.2589895 -12.57424708 36.2516886 -12.57131577 30.24436951 C-12.57064623 27.68297827 -12.57147584 25.1215862 -12.57379532 22.56019592 C-12.57632027 18.98737347 -12.57248346 15.41461457 -12.56689453 11.84179688 C-12.56891876 10.77162827 -12.57094299 9.70145966 -12.57302856 8.59886169 C-12.57020874 7.63130447 -12.56738892 6.66374725 -12.56448364 5.66687012 C-12.56410662 4.82104118 -12.56372959 3.97521225 -12.56334114 3.10375214 C-12.22445342 -2.0566773 -3.85895227 0.00230385 0 0 Z " fill="#035688" transform="translate(355.4375,55.8125)"/>
<path d="M0 0 C4.06212212 -0.14547545 8.12357287 -0.23413226 12.1875 -0.3125 C13.91323242 -0.3753418 13.91323242 -0.3753418 15.67382812 -0.43945312 C24.09662725 -0.56152268 24.09662725 -0.56152268 27.859375 1.77734375 C31.13036033 6.7017286 34.14541312 11.73375039 37.0625 16.875 C37.67416016 17.93847656 38.28582031 19.00195312 38.91601562 20.09765625 C43.33389562 27.78715549 43.33389562 27.78715549 45.25341797 31.28222656 C47.00087718 34.74081678 47.00087718 34.74081678 50 37 C50.39747437 35.94135742 50.39747437 35.94135742 50.80297852 34.86132812 C52.06635965 31.84137566 53.54662969 29.07108164 55.15234375 26.21875 C55.76400391 25.12949219 56.37566406 24.04023438 57.00585938 22.91796875 C57.64330078 21.79003906 58.28074219 20.66210938 58.9375 19.5 C59.57107422 18.37207031 60.20464844 17.24414062 60.85742188 16.08203125 C62.56364207 13.04994699 64.27090381 10.01909887 66 7 C66.50088135 6.09701172 67.0017627 5.19402344 67.51782227 4.26367188 C69 2 69 2 72 0 C74.40429688 -0.25878906 74.40429688 -0.25878906 77.21875 -0.265625 C78.23324219 -0.26820313 79.24773437 -0.27078125 80.29296875 -0.2734375 C81.35128906 -0.26570312 82.40960938 -0.25796875 83.5 -0.25 C84.55832031 -0.25773438 85.61664063 -0.26546875 86.70703125 -0.2734375 C88.22876953 -0.26957031 88.22876953 -0.26957031 89.78125 -0.265625 C91.1744043 -0.26224121 91.1744043 -0.26224121 92.59570312 -0.25878906 C95 0 95 0 98 2 C96.69886199 5.49222352 95.17122644 8.53100646 93.1640625 11.66796875 C92.60001709 12.55274902 92.03597168 13.4375293 91.45483398 14.34912109 C90.85098877 15.28578613 90.24714355 16.22245117 89.625 17.1875 C88.69312866 18.642771 88.69312866 18.642771 87.74243164 20.12744141 C83.23708178 27.14035076 78.65586783 34.10088777 73.99658203 41.01245117 C73.09779419 42.34691342 72.20400865 43.68476218 71.31591797 45.02636719 C70.40089356 46.39873403 69.46603004 47.75799488 68.51611328 49.10644531 C65.79311851 53.00154293 65.79311851 53.00154293 64.9140625 57.546875 C66.43528579 60.98330746 68.33265772 64.10772706 70.375 67.25 C70.82053223 67.94891357 71.26606445 68.64782715 71.72509766 69.36791992 C73.14142903 71.58430315 74.56922303 73.79291931 76 76 C76.89585557 77.38670439 77.79168929 78.77342288 78.6875 80.16015625 C79.58318489 81.5443669 80.47901878 82.92848114 81.375 84.3125 C81.82125732 85.00206787 82.26751465 85.69163574 82.72729492 86.40209961 C83.18209229 87.10471924 83.63688965 87.80733887 84.10546875 88.53125 C84.57001465 89.24925781 85.03456055 89.96726562 85.51318359 90.70703125 C86.55782088 92.31807121 87.60527311 93.92728769 88.65478516 95.53515625 C90.34102312 98.12210264 92.01515099 100.71655936 93.6875 103.3125 C94.21714355 104.11921143 94.74678711 104.92592285 95.29248047 105.75708008 C95.7773291 106.51400146 96.26217773 107.27092285 96.76171875 108.05078125 C97.19444092 108.71762939 97.62716309 109.38447754 98.07299805 110.0715332 C99 112 99 112 99 116 C94.62614201 116.26210888 90.25430191 116.42144886 85.875 116.5625 C84.6375 116.63791016 83.4 116.71332031 82.125 116.79101562 C73.24820227 117.00577686 73.24820227 117.00577686 70.09936523 114.46850586 C68.46767565 112.06896236 67.25688 109.61622304 66 107 C64.61555282 104.65430133 63.21654114 102.32253819 61.80078125 99.99609375 C61.05750557 98.75038506 60.31598564 97.50362718 59.57617188 96.25585938 C59.20419678 95.6296167 58.83222168 95.00337402 58.44897461 94.3581543 C57.68286794 93.06342579 56.91991032 91.76682942 56.15991211 90.46850586 C55.05009901 88.57579585 53.92679022 86.69170064 52.80078125 84.80859375 C52.14247314 83.69282959 51.48416504 82.57706543 50.8059082 81.42749023 C50.2099585 80.62641846 49.61400879 79.82534668 49 79 C48.01 79 47.02 79 46 79 C45.48953125 79.92296875 44.9790625 80.8459375 44.453125 81.796875 C39.9398517 89.91317275 35.30918921 97.95534768 30.5625 105.9375 C30.04268555 106.81954102 29.52287109 107.70158203 28.98730469 108.61035156 C28.4977832 109.42858398 28.00826172 110.24681641 27.50390625 111.08984375 C26.85143921 112.18607056 26.85143921 112.18607056 26.18579102 113.30444336 C25 115 25 115 23 116 C21.1136088 116.084915 19.22421485 116.107193 17.3359375 116.09765625 C15.65371094 116.09282227 15.65371094 116.09282227 13.9375 116.08789062 C12.761875 116.07951172 11.58625 116.07113281 10.375 116.0625 C9.19164062 116.05798828 8.00828125 116.05347656 6.7890625 116.04882812 C3.85932493 116.03701467 0.92968728 116.02054258 -2 116 C-2.1916949 111.1675643 -1.11767618 109.09672732 1.625 105.0625 C2.45302214 103.82241448 3.27975573 102.58146799 4.10546875 101.33984375 C4.5648584 100.65519043 5.02424805 99.97053711 5.49755859 99.26513672 C8.99630943 93.99028943 12.35569344 88.62394172 15.7409668 83.27587891 C18.51406062 78.89746893 21.29856955 74.53081811 24.15625 70.20703125 C24.6294165 69.4804834 25.10258301 68.75393555 25.59008789 68.00537109 C26.46288163 66.66589602 27.3468508 65.33361003 28.24389648 64.01025391 C29.91844888 61.41496237 31.00444716 59.58079851 30.98046875 56.44921875 C29.74045582 53.35165657 28.16717479 50.69127467 26.375 47.875 C25.72273438 46.84117187 25.07046875 45.80734375 24.3984375 44.7421875 C24.02807373 44.16509033 23.65770996 43.58799316 23.27612305 42.9934082 C22.33911999 41.52973306 21.40932189 40.06143901 20.48364258 38.59057617 C17.24831474 33.46123836 13.93403664 28.39584825 10.52734375 23.37890625 C9.38328022 21.68059989 8.24074681 19.98127611 7.09887695 18.28149414 C6.31375417 17.11940679 5.52323083 15.96095274 4.7277832 14.8059082 C3.56256299 13.11071981 2.41835653 11.40294913 1.27734375 9.69140625 C0.59921631 8.69310791 -0.07891113 7.69480957 -0.77758789 6.66625977 C-2 4 -2 4 -1.20483398 1.64428711 C-0.80723877 1.10167236 -0.40964355 0.55905762 0 0 Z " fill="#055889" transform="translate(344,200)"/>
<path d="M0 0 C0.556875 0.50273438 1.11375 1.00546875 1.6875 1.5234375 C6.93403249 6.90113331 9.61204791 14.3044419 10.2265625 21.7421875 C10 24 10 24 8 26 C2.09626827 26.83825805 -4.14195358 27.39175155 -10 26 C-12.84919856 23.71308805 -14.36119938 21.50830867 -16.29296875 18.4296875 C-18.62733431 15.10708938 -20.76558083 14.21136818 -24.62890625 13.25390625 C-30.06428376 12.67186418 -35.7950362 13.30297679 -41 15 C-43.88025908 19.75242748 -43.3134226 25.02248526 -42.75 30.375 C-40.79008028 34.62149273 -32.7822917 36.08435155 -28.71484375 37.64453125 C-25.55382435 38.79792109 -22.38883528 39.86004122 -19.18457031 40.8815918 C-7.14057585 44.73159659 2.84400234 49.28475517 9.01953125 60.81640625 C12.87112975 69.39426905 12.18972339 82.08337143 9.03515625 90.828125 C4.81625986 99.67984724 -2.06775874 105.64133382 -11.0625 109.375 C-24.14645174 113.33680727 -41.59528675 113.03422045 -54 107 C-56.98962167 105.27100213 -59.49818222 103.37586815 -62 101 C-62.55300781 100.47535156 -63.10601562 99.95070313 -63.67578125 99.41015625 C-68.67244953 94.140717 -72.17640298 87.30186085 -72.3125 79.9375 C-72 77 -72 77 -71 76 C-64.2168926 75.04336393 -56.73355888 74.63198304 -50 76 C-47.04595128 78.32225795 -45.90847654 80.2479425 -44.23828125 83.57421875 C-43.08739898 86.316883 -43.08739898 86.316883 -39.8125 88.125 C-33.23712458 89.63410256 -26.88446087 89.96148696 -20.4375 87.8125 C-17.60424979 85.7057242 -16.33910613 84.27337055 -15 81 C-14.60564842 77.3193853 -14.70836741 74.78376258 -16 71.3125 C-21.69613642 64.72634227 -32.40816893 62.72359706 -40.42382812 60.17578125 C-51.78823953 56.3951752 -60.79248934 50.48855249 -67 40 C-70.45450427 31.4070754 -70.30472802 20.79857524 -67.4375 12 C-63.93609795 3.81777627 -58.02716042 -2.1961384 -50 -6 C-33.67530481 -12.22265096 -13.45153265 -12.23393702 0 0 Z " fill="#055889" transform="translate(317,64)"/>
<path d="M0 0 C2.30664062 -0.35644531 2.30664062 -0.35644531 5.15625 -0.328125 C6.68958984 -0.32039063 6.68958984 -0.32039063 8.25390625 -0.3125 C9.32511719 -0.291875 10.39632812 -0.27125 11.5 -0.25 C12.57121094 -0.24484375 13.64242187 -0.2396875 14.74609375 -0.234375 C22.6915621 -0.15421895 22.6915621 -0.15421895 25 1 C25 32.02 25 63.04 25 95 C38.86 95 52.72 95 67 95 C67.66 95.33 68.32 95.66 69 96 C69.02888146 99.31248187 69.04675799 102.62493167 69.0625 105.9375 C69.07087891 106.88302734 69.07925781 107.82855469 69.08789062 108.80273438 C69.09111328 109.70185547 69.09433594 110.60097656 69.09765625 111.52734375 C69.10289307 112.35999756 69.10812988 113.19265137 69.11352539 114.05053711 C69 116 69 116 68 117 C65.89419586 117.1100096 63.78466694 117.14913223 61.67602539 117.16113281 C60.68576103 117.16858017 60.68576103 117.16858017 59.67549133 117.17617798 C57.4828692 117.19083106 55.29031938 117.19760645 53.09765625 117.203125 C51.57929989 117.20887348 50.06094357 117.21463124 48.54258728 117.22039795 C45.35561788 117.23091663 42.16867378 117.23675373 38.98168945 117.24023438 C34.89123007 117.2457237 30.80110281 117.26975707 26.71074772 117.29820633 C23.57355258 117.31679817 20.43643802 117.32203643 17.29919243 117.32357025 C15.790849 117.32660471 14.28250724 117.33465982 12.77421761 117.34775543 C10.66700846 117.36474622 8.56061834 117.36295357 6.45336914 117.35644531 C5.25281387 117.36009094 4.05225861 117.36373657 2.81532288 117.36749268 C1.88626633 117.24622009 0.95720978 117.12494751 0 117 C-2.1143115 113.82853275 -2.25059999 113.07101681 -2.25396729 109.44543457 C-2.25960693 108.51167496 -2.26524658 107.57791534 -2.27105713 106.61585999 C-2.26700867 105.59342697 -2.26296021 104.57099396 -2.25878906 103.51757812 C-2.2622937 102.43931259 -2.26579834 101.36104706 -2.26940918 100.25010681 C-2.27822945 96.67708953 -2.2723762 93.10426939 -2.265625 89.53125 C-2.26697156 87.05407676 -2.26891202 84.57690378 -2.27142334 82.09973145 C-2.27475341 76.23849364 -2.26774206 70.37732768 -2.2571218 64.51610041 C-2.24961239 59.83931779 -2.25226809 55.16261933 -2.26074219 50.48583984 C-2.27231536 44.04387465 -2.27416231 37.60199095 -2.26763153 31.16001892 C-2.26629471 28.7007597 -2.26794389 26.24149702 -2.27259064 23.78224182 C-2.27765383 20.34887433 -2.26994832 16.91576973 -2.25878906 13.48242188 C-2.26486176 11.94877235 -2.26486176 11.94877235 -2.27105713 10.38414001 C-2.26541748 9.4503804 -2.25977783 8.51662079 -2.25396729 7.55456543 C-2.25321323 6.74267509 -2.25245918 5.93078476 -2.25168228 5.09429169 C-2 3 -2 3 0 0 Z " fill="#065889" transform="translate(584,56)"/>
<path d="M0 0 C1.02544922 -0.00128906 2.05089844 -0.00257812 3.10742188 -0.00390625 C4.72680664 0.00189453 4.72680664 0.00189453 6.37890625 0.0078125 C7.45462891 0.00394531 8.53035156 0.00007813 9.63867188 -0.00390625 C11.1787793 -0.00197266 11.1787793 -0.00197266 12.75 0 C13.69673584 0.00112793 14.64347168 0.00225586 15.61889648 0.00341797 C17.94140625 0.1328125 17.94140625 0.1328125 19.94140625 1.1328125 C19.94140625 32.1528125 19.94140625 63.1728125 19.94140625 95.1328125 C34.13140625 95.1328125 48.32140625 95.1328125 62.94140625 95.1328125 C64.94140625 97.1328125 64.94140625 97.1328125 65.18432617 99.08813477 C65.18021729 99.86729248 65.1761084 100.6464502 65.171875 101.44921875 C65.16994141 102.29548828 65.16800781 103.14175781 65.16601562 104.01367188 C65.15376953 104.89861328 65.14152344 105.78355469 65.12890625 106.6953125 C65.12793945 108.02852539 65.12793945 108.02852539 65.12695312 109.38867188 C65.08161722 115.99260153 65.08161722 115.99260153 63.94140625 117.1328125 C61.79940301 117.23233543 59.6540792 117.26080929 57.50976562 117.26220703 C56.50246147 117.26483551 56.50246147 117.26483551 55.47480774 117.26751709 C53.24489797 117.2719348 51.01506689 117.26899792 48.78515625 117.265625 C47.24198389 117.26629806 45.69881164 117.26726811 44.15563965 117.26852417 C40.91738885 117.27000103 37.67916558 117.26784697 34.44091797 117.26318359 C30.28098102 117.2574863 26.12110859 117.26076537 21.96117401 117.26675606 C18.77341217 117.27036199 15.58566574 117.26922294 12.39790344 117.26662827 C10.86363213 117.26595908 9.32935943 117.26678711 7.79508972 117.26910782 C5.65437084 117.27163488 3.51375783 117.26779304 1.37304688 117.26220703 C-0.45776428 117.26101364 -0.45776428 117.26101364 -2.32556152 117.25979614 C-5.05859375 117.1328125 -5.05859375 117.1328125 -6.05859375 116.1328125 C-6.15647639 114.64229982 -6.18491157 113.14716545 -6.18557739 111.65344238 C-6.18839722 110.68588516 -6.19121704 109.71832794 -6.19412231 108.72145081 C-6.19209808 107.6512822 -6.19007385 106.58111359 -6.18798828 105.47851562 C-6.1897406 104.35831528 -6.19149292 103.23811493 -6.19329834 102.08396912 C-6.19771952 98.36065141 -6.19477792 94.63738074 -6.19140625 90.9140625 C-6.19207921 88.33955883 -6.19304917 85.76505521 -6.19430542 83.19055176 C-6.19578275 77.78669575 -6.19372129 72.3828576 -6.18896484 66.97900391 C-6.18352225 60.72319778 -6.18528492 54.46742424 -6.19079125 48.2116189 C-6.19586809 42.204302 -6.19534083 36.1970011 -6.19240952 30.18968201 C-6.19173998 27.62829077 -6.19256959 25.0668987 -6.19488907 22.50550842 C-6.19741402 18.93268597 -6.19357721 15.35992707 -6.18798828 11.78710938 C-6.19001251 10.71694077 -6.19203674 9.64677216 -6.19412231 8.54417419 C-6.19130249 7.57661697 -6.18848267 6.60905975 -6.18557739 5.61218262 C-6.18520037 4.76635368 -6.18482334 3.92052475 -6.18443489 3.04906464 C-5.92673912 -0.87501038 -3.33788354 0.00398146 0 0 Z " fill="#025687" transform="translate(503.05859375,55.8671875)"/>
<path d="M0 0 C1.53333984 -0.00386719 1.53333984 -0.00386719 3.09765625 -0.0078125 C4.16886719 -0.00007813 5.24007813 0.00765625 6.34375 0.015625 C7.95056641 0.00402344 7.95056641 0.00402344 9.58984375 -0.0078125 C10.61207031 -0.00523438 11.63429688 -0.00265625 12.6875 0 C13.62787109 0.00225586 14.56824219 0.00451172 15.53710938 0.00683594 C17.84375 0.265625 17.84375 0.265625 19.84375 2.265625 C20.09263897 4.28930759 20.09263897 4.28930759 20.09098816 6.82728577 C20.09518265 7.7878035 20.09937714 8.74832123 20.10369873 9.73794556 C20.09526947 11.32377945 20.09526947 11.32377945 20.08666992 12.94165039 C20.08856827 14.05224319 20.09046661 15.162836 20.09242249 16.30708313 C20.09613915 19.99255341 20.08541397 23.67782837 20.07421875 27.36328125 C20.07302743 29.91393511 20.07257369 32.46458941 20.0728302 35.01524353 C20.07126383 40.36606797 20.06320356 45.71682411 20.04956055 51.06762695 C20.0338266 57.26154126 20.0285627 63.45539353 20.0292961 69.64932638 C20.02990559 75.59951723 20.02470018 81.54969012 20.01650429 87.49987602 C20.01331099 90.03614619 20.01134868 92.5724182 20.01061058 95.10869026 C20.00845448 98.6454904 19.99972638 102.18221096 19.98901367 105.71899414 C19.98969345 107.30786438 19.98969345 107.30786438 19.99038696 108.92883301 C19.98612198 109.88653091 19.98185699 110.84422882 19.97746277 111.83094788 C19.97578692 112.66810365 19.97411108 113.50525942 19.97238445 114.36778355 C19.84375 116.265625 19.84375 116.265625 18.84375 117.265625 C17.00215977 117.36522121 15.15678033 117.39642911 13.3125 117.3984375 C12.19230469 117.39972656 11.07210938 117.40101563 9.91796875 117.40234375 C8.73847656 117.39847656 7.55898438 117.39460938 6.34375 117.390625 C4.57451172 117.39642578 4.57451172 117.39642578 2.76953125 117.40234375 C1.64933594 117.40105469 0.52914063 117.39976562 -0.625 117.3984375 C-1.66076172 117.39730957 -2.69652344 117.39618164 -3.76367188 117.39501953 C-6.15625 117.265625 -6.15625 117.265625 -7.15625 116.265625 C-7.25625925 114.7901129 -7.28700227 113.30984241 -7.28996277 111.83094788 C-7.29422775 110.87324997 -7.29849274 109.91555206 -7.30288696 108.92883301 C-7.30243378 107.86958618 -7.30198059 106.81033936 -7.30151367 105.71899414 C-7.30487228 104.61015366 -7.3082309 103.50131317 -7.31169128 102.35887146 C-7.3212341 98.67283017 -7.32314604 94.98683414 -7.32421875 91.30078125 C-7.32742894 88.75109335 -7.33079282 86.20140564 -7.33430481 83.65171814 C-7.34030438 78.29913837 -7.34218652 72.94657563 -7.34155273 67.59399414 C-7.34095179 61.40066677 -7.35150525 55.20742645 -7.3672964 49.01412112 C-7.38192782 43.06447481 -7.38554135 37.11485522 -7.38494301 31.16518974 C-7.38612723 28.62974123 -7.39057353 26.09429215 -7.39827538 23.55885506 C-7.40801938 20.01971233 -7.40521941 16.48079639 -7.39916992 12.94165039 C-7.40478943 11.8844278 -7.41040894 10.8272052 -7.41619873 9.73794556 C-7.41200424 8.77742783 -7.40780975 7.8169101 -7.40348816 6.82728577 C-7.40403293 5.98975297 -7.40457769 5.15222017 -7.40513897 4.28930759 C-6.84562998 -0.25998442 -3.8298374 0.00918741 0 0 Z " fill="#06588A" transform="translate(455.15625,55.734375)"/>
<path d="M0 0 C0.66 2.64 1.32 5.28 2 8 C1.278125 7.46375 0.55625 6.9275 -0.1875 6.375 C-2.91346484 4.67792659 -2.91346484 4.67792659 -5.75 5.625 C-8.31074335 6.85790128 -8.31074335 6.85790128 -9 10 C-6.36 12.31 -3.72 14.62 -1 17 C-2.16704187 22.83520934 -4.18975 25.91407165 -8.86035156 29.38085938 C-10.91928503 30.72697039 -13.00656886 31.99977834 -15.125 33.25 C-16.5443332 34.10927199 -17.96360637 34.96864316 -19.3828125 35.828125 C-20.31697998 36.3835498 -20.31697998 36.3835498 -21.27001953 36.95019531 C-22.87381408 37.92342655 -24.43908252 38.95938835 -26 40 C-26.495 38.515 -26.495 38.515 -27 37 C-26.34 37 -25.68 37 -25 37 C-25 36.34 -25 35.68 -25 35 C-24.34 35 -23.68 35 -23 35 C-23.9497172 32.61561249 -23.9497172 32.61561249 -27.3125 31.25 C-31.09160374 29.14616905 -33.09599155 26.96668427 -35 23 C-34.91027934 18.6036876 -33.83647194 15.35219412 -31 12 C-23.25740724 7.05112628 -9.27025838 0 0 0 Z M-17 9 C-18.65 9.66 -20.3 10.32 -22 11 C-22 17.6 -22 24.2 -22 31 C-17.95377498 31.36980013 -17.95377498 31.36980013 -15 29 C-14.58519893 26.97112689 -14.58519893 26.97112689 -14.70703125 24.6484375 C-14.7215332 23.37226563 -14.7215332 23.37226563 -14.73632812 22.0703125 C-14.76146484 21.18085938 -14.78660156 20.29140625 -14.8125 19.375 C-14.82603516 18.4778125 -14.83957031 17.580625 -14.85351562 16.65625 C-14.88893075 14.43690211 -14.93831539 12.21874812 -15 10 C-15.66 9.67 -16.32 9.34 -17 9 Z " fill="#0B5585" transform="translate(142,171)"/>
<path d="M0 0 C1.32 1.32 2.64 2.64 4 4 C3.67 4.66 3.34 5.32 3 6 C2.34 6 1.68 6 1 6 C1.639375 6.639375 2.27875 7.27875 2.9375 7.9375 C5.19392433 11.28794824 6.17837824 13.58186059 6.5 17.58203125 C5.44639586 22.677195 0.96094052 25.94367885 -3 29 C-5.30078125 30.25390625 -5.30078125 30.25390625 -7 31 C-7.33 29.68 -7.66 28.36 -8 27 C-7.18144531 26.48953125 -6.36289063 25.9790625 -5.51953125 25.453125 C-2.66560323 23.17483431 -2.66560323 23.17483431 -2.51171875 19.546875 C-2.56972656 18.29390625 -2.62773438 17.0409375 -2.6875 15.75 C-2.73261719 14.48671875 -2.77773437 13.2234375 -2.82421875 11.921875 C-2.88222656 10.95765625 -2.94023438 9.9934375 -3 9 C-3.99 8.67 -4.98 8.34 -6 8 C-8.41121859 9.95633975 -8.41121859 9.95633975 -8.125 13.625 C-8.09306032 15.08357879 -8.05098033 16.54196254 -8 18 C-7.90588373 20.6917254 -7.90696344 23.30193973 -8 26 C-8.66 26.66 -9.32 27.32 -10 28 C-16.1089026 19.11842205 -16.1089026 19.11842205 -16 14 C-13.32330984 6.25168638 -6.98736083 3.61453099 0 0 Z " fill="#115A88" transform="translate(129,212)"/>
<path d="M0 0 C0.33 7.26 0.66 14.52 1 22 C-4.50252554 22 -5.24627692 21.65494089 -9 18 C-11.30583279 15.07927847 -12.03097143 13.74331441 -11.875 10 C-9.8597927 3.09071783 -7.51112731 0 0 0 Z " fill="#055486" transform="translate(119,181)"/>
<path d="M0 0 C0 11.88 0 23.76 0 36 C-0.33 36 -0.66 36 -1 36 C-1.33 30.06 -1.66 24.12 -2 18 C-2.99 18 -3.98 18 -5 18 C-4.67 15.36 -4.34 12.72 -4 10 C-5.0725 9.9175 -6.145 9.835 -7.25 9.75 C-11.2712975 8.9457405 -12.70098139 8.35273547 -15 5 C-14.59375 2.86328125 -14.59375 2.86328125 -14 1 C-12.22932584 0.83165067 -10.45845388 0.66538091 -8.6875 0.5 C-7.70136719 0.4071875 -6.71523437 0.314375 -5.69921875 0.21875 C-3 0 -3 0 0 0 Z " fill="#155F8D" transform="translate(119,126)"/>
<path d="M0 0 C0.66 0.33 1.32 0.66 2 1 C-2.5 6.875 -2.5 6.875 -7 8 C-5.68 10.64 -4.36 13.28 -3 16 C-4.32 16 -5.64 16 -7 16 C-7 17.98 -7 19.96 -7 22 C-7.33 22 -7.66 22 -8 22 C-8.33 18.04 -8.66 14.08 -9 10 C-10.65 10.66 -12.3 11.32 -14 12 C-14.33 14.64 -14.66 17.28 -15 20 C-15.99 19.67 -16.98 19.34 -18 19 C-18.46149258 15.12346234 -18.21903482 13.35045571 -16.125 10 C-11.87939642 5.3761961 -5.91514845 1.97171615 0 0 Z " fill="#185482" transform="translate(135,243)"/>
<path d="M0 0 C1.32 0.66 2.64 1.32 4 2 C3.34 2 2.68 2 2 2 C1.67 3.65 1.34 5.3 1 7 C0.01 7 -0.98 7 -2 7 C-2 12.94 -2 18.88 -2 25 C-2.33 25 -2.66 25 -3 25 C-3.33 19.06 -3.66 13.12 -4 7 C-5.98 7.33 -7.96 7.66 -10 8 C-10 13.94 -10 19.88 -10 26 C-10.33 26 -10.66 26 -11 26 C-11 19.73 -11 13.46 -11 7 C-11.99 6.67 -12.98 6.34 -14 6 C-13.07316406 5.65066406 -12.14632812 5.30132812 -11.19140625 4.94140625 C-9.99386719 4.48636719 -8.79632813 4.03132812 -7.5625 3.5625 C-6.36753906 3.11003906 -5.17257813 2.65757812 -3.94140625 2.19140625 C-1.15554277 1.2855174 -1.15554277 1.2855174 0 0 Z " fill="#31729A" transform="translate(130,174)"/>
<path d="M0 0 C0.33 0 0.66 0 1 0 C1.33 1.65 1.66 3.3 2 5 C2.99 5.33 3.98 5.66 5 6 C4.01 7.485 4.01 7.485 3 9 C2.85778935 11.60245498 2.81197068 14.09117684 2.875 16.6875 C2.88853516 17.7403418 2.88853516 17.7403418 2.90234375 18.81445312 C2.92586296 20.54311525 2.96173287 22.27160145 3 24 C3.99 24.33 4.98 24.66 6 25 C4.02 25 2.04 25 0 25 C0 24.34 0 23.68 0 23 C-0.66 22.67 -1.32 22.34 -2 22 C-2.02688151 20.35425434 -2.04634123 18.70838587 -2.0625 17.0625 C-2.07410156 16.14597656 -2.08570312 15.22945312 -2.09765625 14.28515625 C-2 12 -2 12 -1 11 C-0.76636119 9.15108054 -0.58696365 7.29511969 -0.4375 5.4375 C-0.35371094 4.42558594 -0.26992187 3.41367188 -0.18359375 2.37109375 C-0.12300781 1.58863281 -0.06242188 0.80617188 0 0 Z " fill="#1E5E8C" transform="translate(129,101)"/>
<path d="M0 0 C0.33 0 0.66 0 1 0 C1.85198485 16.12426645 2.23235657 31.89133918 1 48 C1.66 48.33 2.32 48.66 3 49 C2.34 49 1.68 49 1 49 C1.144375 50.27875 1.28875 51.5575 1.4375 52.875 C1.51871094 53.59429687 1.59992188 54.31359375 1.68359375 55.0546875 C1.91292961 57.07404316 1.91292961 57.07404316 3 59 C1.515 59.495 1.515 59.495 0 60 C-1.32637487 57.34725027 -1.07956818 55.4178334 -1.02172852 52.44873047 C-1.00163223 51.28767792 -0.98153595 50.12662537 -0.96083069 48.9303894 C-0.93379562 47.67203278 -0.90676056 46.41367615 -0.87890625 45.1171875 C-0.85529526 43.83264679 -0.83168427 42.54810608 -0.80735779 41.22463989 C-0.74450505 37.80835149 -0.67544189 34.39221559 -0.60510254 30.97607422 C-0.53442976 27.49063059 -0.46960649 24.00507877 -0.40429688 20.51953125 C-0.27526927 13.6795699 -0.13968312 6.83975181 0 0 Z " fill="#066093" transform="translate(344,113)"/>
<path d="M0 0 C1.32 1.32 2.64 2.64 4 4 C2.6875 5.5 2.6875 5.5 1 7 C0.01 7 -0.98 7 -2 7 C-2.33 7.66 -2.66 8.32 -3 9 C-3.99 8.67 -4.98 8.34 -6 8 C-6.99 8.66 -7.98 9.32 -9 10 C-9 9.34 -9 8.68 -9 8 C-9.99 7.67 -10.98 7.34 -12 7 C-8.04 4.69 -4.08 2.38 0 0 Z " fill="#26618C" transform="translate(129,212)"/>
<path d="M0 0 C1.67542976 0.28604898 3.34385343 0.61781233 5 1 C2.71035107 3.44375992 0.27347809 5.31540229 -2.5 7.1875 C-3.2734375 7.71730469 -4.046875 8.24710938 -4.84375 8.79296875 C-7 10 -7 10 -10 10 C-10 9.34 -10 8.68 -10 8 C-9.34 8 -8.68 8 -8 8 C-8 7.34 -8 6.68 -8 6 C-7.34 6 -6.68 6 -6 6 C-6.33 5.01 -6.66 4.02 -7 3 C-5.5459375 2.5359375 -5.5459375 2.5359375 -4.0625 2.0625 C-1.15934208 1.30476658 -1.15934208 1.30476658 0 0 Z " fill="#235C88" transform="translate(125,200)"/>
<path d="M0 0 C0.99 0 1.98 0 3 0 C3 5.61 3 11.22 3 17 C2.34 17 1.68 17 1 17 C-0.06546953 13.8035914 -0.07427838 11.34252724 0 8 C-0.66 7.67 -1.32 7.34 -2 7 C-1.34 4.69 -0.68 2.38 0 0 Z " fill="#0E5584" transform="translate(117,220)"/>
<path d="M0 0 C10.395 0.99 10.395 0.99 21 2 C20.67 2.66 20.34 3.32 20 4 C19.01 4.33 18.02 4.66 17 5 C16.34 5.66 15.68 6.32 15 7 C15 6.34 15 5.68 15 5 C14.33613281 4.87882812 13.67226562 4.75765625 12.98828125 4.6328125 C8.46575541 3.77452292 4.20061476 2.96028689 0 1 C0 0.67 0 0.34 0 0 Z " fill="#305E85" transform="translate(156,110)"/>
<path d="M0 0 C0.8353125 0.556875 0.8353125 0.556875 1.6875 1.125 C-1.3125 3.125 -1.3125 3.125 -3.3125 3.125 C-3.3125 9.065 -3.3125 15.005 -3.3125 21.125 C-3.6425 21.125 -3.9725 21.125 -4.3125 21.125 C-4.3125 14.855 -4.3125 8.585 -4.3125 2.125 C-5.3025 1.795 -6.2925 1.465 -7.3125 1.125 C-2.88173077 -1.09038462 -2.88173077 -1.09038462 0 0 Z " fill="#3E7194" transform="translate(123.3125,178.875)"/>
<path d="M0 0 C3.375 0.6875 3.375 0.6875 7 2 C8.4375 4.625 8.4375 4.625 9 7 C5 7 5 7 2.25 4.625 C0 2 0 2 0 0 Z " fill="#165C89" transform="translate(106,100)"/>
<path d="M0 0 C0.66 1.32 1.32 2.64 2 4 C4.53770003 5.28254644 4.53770003 5.28254644 7 6 C6.34 6.66 5.68 7.32 5 8 C3.68 8 2.36 8 1 8 C1 11.63 1 15.26 1 19 C0.67 19 0.34 19 0 19 C0 12.73 0 6.46 0 0 Z " fill="#0D5F90" transform="translate(129,139)"/>
<path d="M0 0 C1.65 1.65 3.3 3.3 5 5 C4.67 5.66 4.34 6.32 4 7 C3.34 6.34 2.68 5.68 2 5 C0.18884044 6.81115956 0.61800552 9.61278227 0.4375 12.0625 C0.35371094 13.16722656 0.26992187 14.27195313 0.18359375 15.41015625 C0.12300781 16.26480469 0.06242188 17.11945313 0 18 C-0.33 18 -0.66 18 -1 18 C-1.02684312 15.18743719 -1.04676188 12.37512759 -1.0625 9.5625 C-1.07087891 8.76005859 -1.07925781 7.95761719 -1.08789062 7.13085938 C-1.0965143 5.08704779 -1.0522815 3.04316098 -1 1 C-0.67 0.67 -0.34 0.34 0 0 Z " fill="#164C7A" transform="translate(128,217)"/>
<path d="M0 0 C2 2 2 2 2 5 C1.01 5.33 0.02 5.66 -1 6 C-1.33 9.3 -1.66 12.6 -2 16 C-2.33 16 -2.66 16 -3 16 C-3.0810206 13.89646505 -3.13919907 11.79204048 -3.1875 9.6875 C-3.22230469 8.51574219 -3.25710937 7.34398438 -3.29296875 6.13671875 C-3 3 -3 3 -1.48828125 1.08203125 C-0.99714844 0.72496094 -0.50601563 0.36789063 0 0 Z " fill="#094778" transform="translate(131,96)"/>
<path d="M0 0 C0.66 0.33 1.32 0.66 2 1 C1.8125 2.8125 1.8125 2.8125 1 5 C-1.5625 6.75 -1.5625 6.75 -4 8 C-4.33 6.68 -4.66 5.36 -5 4 C-3.35 2.68 -1.7 1.36 0 0 Z " fill="#205F8A" transform="translate(126,235)"/>
<path d="M0 0 C0.33 0 0.66 0 1 0 C1 1.98 1 3.96 1 6 C0.38125 6.268125 -0.2375 6.53625 -0.875 6.8125 C-3.2995233 7.95556848 -3.2995233 7.95556848 -5 11 C-5.66 10.67 -6.32 10.34 -7 10 C-5.85821872 8.33055479 -4.71147095 6.6645052 -3.5625 5 C-2.92441406 4.071875 -2.28632813 3.14375 -1.62890625 2.1875 C-1.09136719 1.465625 -0.55382812 0.74375 0 0 Z " fill="#1F5B87" transform="translate(386,81)"/>
<path d="M0 0 C0.66 0.33 1.32 0.66 2 1 C0.35 2.98 -1.3 4.96 -3 7 C-3.33 6.34 -3.66 5.68 -4 5 C-4.99 4.67 -5.98 4.34 -7 4 C-4.61426621 2.10786631 -2.92824652 0.97608217 0 0 Z " fill="#175F8F" transform="translate(135,243)"/>
<path d="M0 0 C1.32 0 2.64 0 4 0 C4.33 0.99 4.66 1.98 5 3 C2.36 3.66 -0.28 4.32 -3 5 C-1.125 1.125 -1.125 1.125 0 0 Z " fill="#1A5F8B" transform="translate(123,164)"/>
<path d="M0 0 C0.598125 0.350625 1.19625 0.70125 1.8125 1.0625 C0.4925 2.7125 -0.8275 4.3625 -2.1875 6.0625 C-5.1875 2.3125 -5.1875 2.3125 -5.1875 0.0625 C-2.1875 -0.9375 -2.1875 -0.9375 0 0 Z " fill="#175C8A" transform="translate(160.1875,135.9375)"/>
<path d="M0 0 C1.32 1.32 2.64 2.64 4 4 C3.01 4.99 2.02 5.98 1 7 C0.67 5.68 0.34 4.36 0 3 C-1.65 3.33 -3.3 3.66 -5 4 C-3.35 2.68 -1.7 1.36 0 0 Z " fill="#356A91" transform="translate(129,212)"/>
<path d="M0 0 C1 2 1 2 0.51171875 3.91015625 C0.23972656 4.62042969 -0.03226562 5.33070313 -0.3125 6.0625 C-0.57675781 6.77535156 -0.84101562 7.48820313 -1.11328125 8.22265625 C-2 10 -2 10 -4 11 C-3.48964169 6.6109185 -2.47785723 3.66291938 0 0 Z " fill="#205C86" transform="translate(111,183)"/>
<path d="M0 0 C0.99 0.33 1.98 0.66 3 1 C-0.60957611 4.2910841 -3.12637153 5.54663921 -8 6 C-5.38485683 3.87961365 -2.80362384 1.86908256 0 0 Z " fill="#1B5B87" transform="translate(152,163)"/>
<path d="M0 0 C0.99 1.32 1.98 2.64 3 4 C1.68 4.33 0.36 4.66 -1 5 C-1 6.98 -1 8.96 -1 11 C-1.33 11 -1.66 11 -2 11 C-2.28571429 3.57142857 -2.28571429 3.57142857 0 0 Z " fill="#2E6992" transform="translate(129,254)"/>
<path d="M0 0 C0.33 0 0.66 0 1 0 C1.33 3.63 1.66 7.26 2 11 C1.34 11 0.68 11 0 11 C-0.66 8.03 -1.32 5.06 -2 2 C-1.34 2 -0.68 2 0 2 C0 1.34 0 0.68 0 0 Z " fill="#104B7A" transform="translate(112,252)"/>
<path d="M0 0 C1.17539996 0.92652701 2.34010577 1.86663387 3.5 2.8125 C4.1496875 3.33457031 4.799375 3.85664063 5.46875 4.39453125 C7 6 7 6 7 9 C3.99234114 6.15063897 1.72154788 3.76488042 0 0 Z " fill="#245C88" transform="translate(99,197)"/>
<path d="M0 0 C0.33 0 0.66 0 1 0 C0.67 5.28 0.34 10.56 0 16 C-0.33 16 -0.66 16 -1 16 C-2.0006709 10.03654233 -2.0662997 5.71271093 0 0 Z " fill="#206592" transform="translate(203,79)"/>
<path d="M0 0 C0.66 0.66 1.32 1.32 2 2 C1.34 2.66 0.68 3.32 0 4 C-0.99 4 -1.98 4 -3 4 C-3.33 4.66 -3.66 5.32 -4 6 C-4.66 5.34 -5.32 4.68 -6 4 C-4.02 2.68 -2.04 1.36 0 0 Z " fill="#215F8B" transform="translate(138,206)"/>
<path d="M0 0 C2.97 0.495 2.97 0.495 6 1 C5.67 1.99 5.34 2.98 5 4 C3.35 3.67 1.7 3.34 0 3 C0 2.01 0 1.02 0 0 Z " fill="#0C5685" transform="translate(124,177)"/>
<path d="M0 0 C0.99 0.33 1.98 0.66 3 1 C0.03 3.475 0.03 3.475 -3 6 C-3.66 5.67 -4.32 5.34 -5 5 C-3.35 3.35 -1.7 1.7 0 0 Z " fill="#2D638C" transform="translate(71,30)"/>
<path d="" fill="#8DA3B1" transform="translate(0,0)"/>
<path d="M0 0 C0.99 0.495 0.99 0.495 2 1 C1.01 1.495 1.01 1.495 0 2 C0 1.34 0 0.68 0 0 Z " fill="#8399A8" transform="translate(121,222)"/>
<path d="" fill="#728B9E" transform="translate(0,0)"/>
<path d="" fill="#9AA8B4" transform="translate(0,0)"/>
<path d="" fill="#909FA9" transform="translate(0,0)"/>
<path d="" fill="#9BAAB5" transform="translate(0,0)"/>
</svg>
